<mxfile host="65bd71144e">
    <diagram id="NrLGPHyMQpCCdDm0QkeN" name="Page-1">
        <mxGraphModel dx="1130" dy="673" grid="1" gridSize="10" guides="1" tooltips="1" connect="1" arrows="1" fold="1" page="1" pageScale="1" pageWidth="850" pageHeight="1100" math="0" shadow="0">
            <root>
                <mxCell id="0"/>
                <mxCell id="1" parent="0"/>
                <mxCell id="46" style="edgeStyle=none;rounded=0;html=1;entryX=0;entryY=0.5;entryDx=0;entryDy=0;strokeColor=default;" parent="1" source="3" target="5" edge="1">
                    <mxGeometry relative="1" as="geometry">
                        <Array as="points">
                            <mxPoint x="320" y="310"/>
                            <mxPoint x="320" y="440"/>
                        </Array>
                    </mxGeometry>
                </mxCell>
                <mxCell id="3" value="&amp;nbsp; &amp;nbsp;&lt;b&gt;Buyer UTxO&lt;/b&gt;&lt;br&gt;&lt;b&gt;&amp;nbsp; &amp;nbsp;assets:&lt;/b&gt;&lt;br&gt;&lt;span style=&quot;font-weight: bold; white-space: pre;&quot;&gt;&#9;&lt;/span&gt;coin: 202 ADA" style="rounded=0;whiteSpace=wrap;html=1;align=left;fillColor=#d5e8d4;strokeColor=#82b366;" parent="1" vertex="1">
                    <mxGeometry x="20" y="270" width="250" height="80" as="geometry"/>
                </mxCell>
                <mxCell id="4" style="edgeStyle=segmentEdgeStyle;shape=connector;curved=0;rounded=0;html=1;entryX=0;entryY=0.5;entryDx=0;entryDy=0;labelBackgroundColor=default;strokeColor=default;fontFamily=Helvetica;fontSize=11;fontColor=default;endArrow=classic;startSize=8;endSize=8;exitX=1;exitY=0.5;exitDx=0;exitDy=0;" parent="1" source="5" target="7" edge="1">
                    <mxGeometry relative="1" as="geometry">
                        <Array as="points">
                            <mxPoint x="540" y="440"/>
                            <mxPoint x="540" y="550"/>
                        </Array>
                        <mxPoint x="495" y="360" as="sourcePoint"/>
                    </mxGeometry>
                </mxCell>
                <mxCell id="53" style="edgeStyle=none;html=1;entryX=0;entryY=0.5;entryDx=0;entryDy=0;exitX=1;exitY=0.5;exitDx=0;exitDy=0;strokeColor=default;rounded=0;" parent="1" source="5" target="52" edge="1">
                    <mxGeometry relative="1" as="geometry">
                        <mxPoint x="495" y="360" as="sourcePoint"/>
                        <Array as="points">
                            <mxPoint x="540" y="440"/>
                            <mxPoint x="540" y="360"/>
                        </Array>
                    </mxGeometry>
                </mxCell>
                <mxCell id="57" style="edgeStyle=none;html=1;entryX=0;entryY=0.5;entryDx=0;entryDy=0;rounded=0;exitX=1;exitY=0.5;exitDx=0;exitDy=0;" parent="1" source="5" target="54" edge="1">
                    <mxGeometry relative="1" as="geometry">
                        <mxPoint x="495" y="360" as="sourcePoint"/>
                        <Array as="points">
                            <mxPoint x="540" y="440"/>
                            <mxPoint x="540" y="360"/>
                            <mxPoint x="540" y="720"/>
                        </Array>
                    </mxGeometry>
                </mxCell>
                <mxCell id="5" value="Ask Limit Buy" style="shape=process;whiteSpace=wrap;html=1;backgroundOutline=1;" parent="1" vertex="1">
                    <mxGeometry x="370" y="410" width="125" height="60" as="geometry"/>
                </mxCell>
                <mxCell id="6" value="&amp;nbsp; &amp;nbsp;&lt;b&gt;Buyer UTxO&lt;/b&gt;&lt;br&gt;&lt;b&gt;&amp;nbsp; &amp;nbsp;assets:&lt;/b&gt;&lt;br&gt;&lt;span style=&quot;font-weight: bold; white-space: pre;&quot;&gt;&#9;&lt;/span&gt;coin: 102 ADA&lt;br&gt;&lt;span style=&quot;white-space: pre;&quot;&gt;&#9;&lt;/span&gt;token: 1 bond tokens" style="rounded=0;whiteSpace=wrap;html=1;align=left;fillColor=#d5e8d4;strokeColor=#82b366;" parent="1" vertex="1">
                    <mxGeometry x="590" y="190" width="250" height="80" as="geometry"/>
                </mxCell>
                <mxCell id="7" value="&amp;nbsp; &amp;nbsp;&lt;b&gt;Ask Limit UTxO&lt;br&gt;&lt;/b&gt;&amp;nbsp; &amp;nbsp;&lt;b&gt;address:&lt;br&gt;&lt;/b&gt;&lt;span style=&quot;&quot;&gt;&#9;&lt;/span&gt;&lt;span style=&quot;&quot;&gt;&#9;&lt;/span&gt;&lt;span style=&quot;white-space: pre;&quot;&gt;&#9;&lt;/span&gt;payment: Ask Limit Script Credential&lt;br&gt;&lt;span style=&quot;&quot;&gt;&#9;&lt;/span&gt;&lt;span style=&quot;&quot;&gt;&#9;&lt;/span&gt;&lt;span style=&quot;white-space: pre;&quot;&gt;&#9;&lt;/span&gt;stake: user SPO pubkey Credential&lt;br&gt;&amp;nbsp; &amp;nbsp;&lt;b&gt;datum:&lt;br&gt;&lt;/b&gt;&lt;span style=&quot;&quot;&gt;&#9;&lt;/span&gt;&lt;span style=&quot;&quot;&gt;&#9;&lt;/span&gt;&lt;span style=&quot;white-space: pre;&quot;&gt;&#9;&lt;/span&gt;payment_key:&amp;nbsp;04b058fbc736588695...&lt;br&gt;&lt;span style=&quot;font-weight: bold;&quot;&gt;&#9;&lt;/span&gt;&lt;span style=&quot;white-space: pre;&quot;&gt;&#9;&lt;/span&gt;stake_key:&amp;nbsp;41fa931b257f64696f831...&lt;br&gt;&lt;span style=&quot;white-space: pre;&quot;&gt;&#9;&lt;/span&gt;requested_yield: 500&lt;br&gt;&lt;b&gt;&amp;nbsp; &amp;nbsp;assets:&lt;/b&gt;&lt;br&gt;&lt;span style=&quot;font-weight: bold;&quot;&gt;&#9;&lt;/span&gt;&lt;span style=&quot;&quot;&gt;&#9;&lt;/span&gt;&lt;span style=&quot;white-space: pre;&quot;&gt;&#9;&lt;/span&gt;coin: 2 ADA&lt;br&gt;&lt;span style=&quot;white-space: pre;&quot;&gt;&#9;&lt;/span&gt;token: 1 bond token" style="rounded=0;whiteSpace=wrap;html=1;align=left;fillColor=#fff2cc;strokeColor=#d6b656;" parent="1" vertex="1">
                    <mxGeometry x="590" y="460" width="250" height="180" as="geometry"/>
                </mxCell>
                <mxCell id="8" value="" style="edgeStyle=segmentEdgeStyle;endArrow=classic;html=1;curved=0;rounded=0;endSize=8;startSize=8;strokeColor=default;entryX=0;entryY=0.5;entryDx=0;entryDy=0;exitX=1;exitY=0.5;exitDx=0;exitDy=0;" parent="1" source="5" target="6" edge="1">
                    <mxGeometry width="50" height="50" relative="1" as="geometry">
                        <mxPoint x="495" y="360" as="sourcePoint"/>
                        <mxPoint x="460" y="160" as="targetPoint"/>
                        <Array as="points">
                            <mxPoint x="540" y="440"/>
                            <mxPoint x="540" y="230"/>
                        </Array>
                    </mxGeometry>
                </mxCell>
                <mxCell id="47" style="edgeStyle=none;rounded=0;html=1;entryX=0;entryY=0.5;entryDx=0;entryDy=0;strokeColor=default;exitX=1;exitY=0.5;exitDx=0;exitDy=0;" parent="1" source="26" target="5" edge="1">
                    <mxGeometry relative="1" as="geometry">
                        <Array as="points">
                            <mxPoint x="320" y="590"/>
                            <mxPoint x="320" y="440"/>
                        </Array>
                    </mxGeometry>
                </mxCell>
                <mxCell id="26" value="&amp;nbsp; &amp;nbsp;&lt;b&gt;Ask Limit UTxO&lt;br&gt;&lt;/b&gt;&amp;nbsp; &amp;nbsp;&lt;b&gt;address:&lt;br&gt;&lt;/b&gt;&lt;span style=&quot;&quot;&gt;&#9;&lt;/span&gt;&lt;span style=&quot;&quot;&gt;&#9;&lt;/span&gt;&lt;span style=&quot;white-space: pre;&quot;&gt;&#9;&lt;/span&gt;payment: Ask Limit Script Credential&lt;br&gt;&lt;span style=&quot;&quot;&gt;&#9;&lt;/span&gt;&lt;span style=&quot;&quot;&gt;&#9;&lt;/span&gt;&lt;span style=&quot;white-space: pre;&quot;&gt;&#9;&lt;/span&gt;stake: user SPO pubkey Credential&lt;br&gt;&amp;nbsp; &amp;nbsp;&lt;b&gt;datum:&lt;br&gt;&lt;/b&gt;&lt;span style=&quot;&quot;&gt;&#9;&lt;/span&gt;&lt;span style=&quot;&quot;&gt;&#9;&lt;/span&gt;&lt;span style=&quot;white-space: pre;&quot;&gt;&#9;&lt;/span&gt;payment_key:&amp;nbsp;04b058fbc736588695...&lt;br&gt;&lt;span style=&quot;font-weight: bold;&quot;&gt;&#9;&lt;/span&gt;&lt;span style=&quot;white-space: pre;&quot;&gt;&#9;&lt;/span&gt;stake_key:&amp;nbsp;41fa931b257f64696f831...&lt;br&gt;&lt;span style=&quot;white-space: pre;&quot;&gt;&#9;&lt;/span&gt;requested_yield: 600&lt;br&gt;&lt;b&gt;&amp;nbsp; &amp;nbsp;assets:&lt;/b&gt;&lt;br&gt;&lt;span style=&quot;font-weight: bold;&quot;&gt;&#9;&lt;/span&gt;&lt;span style=&quot;&quot;&gt;&#9;&lt;/span&gt;&lt;span style=&quot;white-space: pre;&quot;&gt;&#9;&lt;/span&gt;coin: 2 ADA&lt;br&gt;&lt;span style=&quot;white-space: pre;&quot;&gt;&#9;&lt;/span&gt;token: 2 bond token" style="rounded=0;whiteSpace=wrap;html=1;align=left;fillColor=#fff2cc;strokeColor=#d6b656;" parent="1" vertex="1">
                    <mxGeometry x="20" y="500" width="250" height="180" as="geometry"/>
                </mxCell>
                <mxCell id="52" value="&amp;nbsp; &amp;nbsp;&lt;b&gt;Seller UTxO&lt;/b&gt;&lt;br&gt;&lt;b&gt;&amp;nbsp; &amp;nbsp;assets:&lt;/b&gt;&lt;br&gt;&lt;span style=&quot;font-weight: bold; white-space: pre;&quot;&gt;&#9;&lt;/span&gt;coin: 100 ADA" style="rounded=0;whiteSpace=wrap;html=1;align=left;fillColor=#dae8fc;strokeColor=#6c8ebf;" parent="1" vertex="1">
                    <mxGeometry x="590" y="320" width="250" height="80" as="geometry"/>
                </mxCell>
                <mxCell id="54" value="&amp;nbsp; &amp;nbsp;&lt;b&gt;Dex UTxO&lt;/b&gt;&lt;br&gt;&lt;b&gt;&amp;nbsp; &amp;nbsp;assets:&lt;/b&gt;&lt;br&gt;&lt;span style=&quot;font-weight: bold; white-space: pre;&quot;&gt;&#9;&lt;/span&gt;coin: 1 ADA" style="rounded=0;whiteSpace=wrap;html=1;align=left;fillColor=#f5f5f5;strokeColor=#666666;fontColor=#333333;" parent="1" vertex="1">
                    <mxGeometry x="590" y="680" width="250" height="80" as="geometry"/>
                </mxCell>
            </root>
        </mxGraphModel>
    </diagram>
    <diagram id="h37SgwIpP1z7uB-V0dES" name="Page-2">
        <mxGraphModel dx="1130" dy="673" grid="1" gridSize="10" guides="1" tooltips="1" connect="1" arrows="1" fold="1" page="1" pageScale="1" pageWidth="850" pageHeight="1100" math="0" shadow="0">
            <root>
                <mxCell id="0"/>
                <mxCell id="1" parent="0"/>
                <mxCell id="0TGpAV2iyIRaie6uvU2J-1" style="edgeStyle=none;rounded=0;html=1;entryX=0;entryY=0.5;entryDx=0;entryDy=0;strokeColor=default;" edge="1" parent="1" source="0TGpAV2iyIRaie6uvU2J-2" target="0TGpAV2iyIRaie6uvU2J-5">
                    <mxGeometry relative="1" as="geometry">
                        <Array as="points">
                            <mxPoint x="320" y="440"/>
                            <mxPoint x="320" y="570"/>
                        </Array>
                    </mxGeometry>
                </mxCell>
                <mxCell id="0TGpAV2iyIRaie6uvU2J-2" value="&amp;nbsp; &amp;nbsp;&lt;b&gt;Buyer UTxO&lt;/b&gt;&lt;br&gt;&lt;b&gt;&amp;nbsp; &amp;nbsp;assets:&lt;/b&gt;&lt;br&gt;&lt;span style=&quot;font-weight: bold; white-space: pre;&quot;&gt;&#9;&lt;/span&gt;coin: 202 ADA" style="rounded=0;whiteSpace=wrap;html=1;align=left;fillColor=#d5e8d4;strokeColor=#82b366;" vertex="1" parent="1">
                    <mxGeometry x="10" y="400" width="250" height="80" as="geometry"/>
                </mxCell>
                <mxCell id="0TGpAV2iyIRaie6uvU2J-3" style="edgeStyle=none;html=1;entryX=0;entryY=0.5;entryDx=0;entryDy=0;exitX=1;exitY=0.5;exitDx=0;exitDy=0;strokeColor=default;rounded=0;" edge="1" parent="1" source="0TGpAV2iyIRaie6uvU2J-5" target="0TGpAV2iyIRaie6uvU2J-10">
                    <mxGeometry relative="1" as="geometry">
                        <mxPoint x="495" y="490" as="sourcePoint"/>
                        <Array as="points">
                            <mxPoint x="540" y="570"/>
                        </Array>
                    </mxGeometry>
                </mxCell>
                <mxCell id="0TGpAV2iyIRaie6uvU2J-4" style="edgeStyle=none;html=1;entryX=0;entryY=0.5;entryDx=0;entryDy=0;rounded=0;exitX=1;exitY=0.5;exitDx=0;exitDy=0;" edge="1" parent="1" source="0TGpAV2iyIRaie6uvU2J-5" target="0TGpAV2iyIRaie6uvU2J-11">
                    <mxGeometry relative="1" as="geometry">
                        <mxPoint x="495" y="490" as="sourcePoint"/>
                        <Array as="points">
                            <mxPoint x="540" y="570"/>
                            <mxPoint x="540" y="490"/>
                            <mxPoint x="540" y="750"/>
                        </Array>
                    </mxGeometry>
                </mxCell>
                <mxCell id="0TGpAV2iyIRaie6uvU2J-5" value="Ask Limit Buy" style="shape=process;whiteSpace=wrap;html=1;backgroundOutline=1;" vertex="1" parent="1">
                    <mxGeometry x="370" y="540" width="125" height="60" as="geometry"/>
                </mxCell>
                <mxCell id="0TGpAV2iyIRaie6uvU2J-6" value="&amp;nbsp; &amp;nbsp;&lt;b&gt;Buyer UTxO&lt;/b&gt;&lt;br&gt;&lt;b&gt;&amp;nbsp; &amp;nbsp;assets:&lt;/b&gt;&lt;br&gt;&lt;span style=&quot;font-weight: bold; white-space: pre;&quot;&gt;&#9;&lt;/span&gt;coin: 2 ADA&lt;br&gt;&lt;span style=&quot;white-space: pre;&quot;&gt;&#9;&lt;/span&gt;token: 2 bond tokens" style="rounded=0;whiteSpace=wrap;html=1;align=left;fillColor=#d5e8d4;strokeColor=#82b366;" vertex="1" parent="1">
                    <mxGeometry x="590" y="380" width="250" height="80" as="geometry"/>
                </mxCell>
                <mxCell id="0TGpAV2iyIRaie6uvU2J-7" value="" style="edgeStyle=segmentEdgeStyle;endArrow=classic;html=1;curved=0;rounded=0;endSize=8;startSize=8;strokeColor=default;entryX=0;entryY=0.5;entryDx=0;entryDy=0;exitX=1;exitY=0.5;exitDx=0;exitDy=0;" edge="1" parent="1" source="0TGpAV2iyIRaie6uvU2J-5" target="0TGpAV2iyIRaie6uvU2J-6">
                    <mxGeometry width="50" height="50" relative="1" as="geometry">
                        <mxPoint x="495" y="490" as="sourcePoint"/>
                        <mxPoint x="460" y="290" as="targetPoint"/>
                        <Array as="points">
                            <mxPoint x="540" y="570"/>
                            <mxPoint x="540" y="420"/>
                        </Array>
                    </mxGeometry>
                </mxCell>
                <mxCell id="0TGpAV2iyIRaie6uvU2J-8" style="edgeStyle=none;rounded=0;html=1;entryX=0;entryY=0.5;entryDx=0;entryDy=0;strokeColor=default;exitX=1;exitY=0.5;exitDx=0;exitDy=0;" edge="1" parent="1" source="0TGpAV2iyIRaie6uvU2J-9" target="0TGpAV2iyIRaie6uvU2J-5">
                    <mxGeometry relative="1" as="geometry">
                        <Array as="points">
                            <mxPoint x="320" y="720"/>
                            <mxPoint x="320" y="570"/>
                        </Array>
                    </mxGeometry>
                </mxCell>
                <mxCell id="0TGpAV2iyIRaie6uvU2J-9" value="&amp;nbsp; &amp;nbsp;&lt;b&gt;Ask Limit UTxO&lt;br&gt;&lt;/b&gt;&amp;nbsp; &amp;nbsp;&lt;b&gt;address:&lt;br&gt;&lt;/b&gt;&lt;span style=&quot;&quot;&gt;&#9;&lt;/span&gt;&lt;span style=&quot;&quot;&gt;&#9;&lt;/span&gt;&lt;span style=&quot;white-space: pre;&quot;&gt;&#9;&lt;/span&gt;payment: Ask Limit Script Credential&lt;br&gt;&lt;span style=&quot;&quot;&gt;&#9;&lt;/span&gt;&lt;span style=&quot;&quot;&gt;&#9;&lt;/span&gt;&lt;span style=&quot;white-space: pre;&quot;&gt;&#9;&lt;/span&gt;stake: user SPO pubkey Credential&lt;br&gt;&amp;nbsp; &amp;nbsp;&lt;b&gt;datum:&lt;br&gt;&lt;/b&gt;&lt;span style=&quot;&quot;&gt;&#9;&lt;/span&gt;&lt;span style=&quot;&quot;&gt;&#9;&lt;/span&gt;&lt;span style=&quot;white-space: pre;&quot;&gt;&#9;&lt;/span&gt;payment_key:&amp;nbsp;04b058fbc736588695...&lt;br&gt;&lt;span style=&quot;font-weight: bold;&quot;&gt;&#9;&lt;/span&gt;&lt;span style=&quot;white-space: pre;&quot;&gt;&#9;&lt;/span&gt;stake_key:&amp;nbsp;41fa931b257f64696f831...&lt;br&gt;&lt;span style=&quot;white-space: pre;&quot;&gt;&#9;&lt;/span&gt;requested_yield: 600&lt;br&gt;&lt;b&gt;&amp;nbsp; &amp;nbsp;assets:&lt;/b&gt;&lt;br&gt;&lt;span style=&quot;font-weight: bold;&quot;&gt;&#9;&lt;/span&gt;&lt;span style=&quot;&quot;&gt;&#9;&lt;/span&gt;&lt;span style=&quot;white-space: pre;&quot;&gt;&#9;&lt;/span&gt;coin: 2 ADA&lt;br&gt;&lt;span style=&quot;white-space: pre;&quot;&gt;&#9;&lt;/span&gt;token: 2 bond token" style="rounded=0;whiteSpace=wrap;html=1;align=left;fillColor=#fff2cc;strokeColor=#d6b656;" vertex="1" parent="1">
                    <mxGeometry x="10" y="630" width="250" height="180" as="geometry"/>
                </mxCell>
                <mxCell id="0TGpAV2iyIRaie6uvU2J-10" value="&amp;nbsp; &amp;nbsp;&lt;b&gt;Seller UTxO&lt;/b&gt;&lt;br&gt;&lt;b&gt;&amp;nbsp; &amp;nbsp;assets:&lt;/b&gt;&lt;br&gt;&lt;span style=&quot;font-weight: bold; white-space: pre;&quot;&gt;&#9;&lt;/span&gt;coin: 200 ADA" style="rounded=0;whiteSpace=wrap;html=1;align=left;fillColor=#dae8fc;strokeColor=#6c8ebf;" vertex="1" parent="1">
                    <mxGeometry x="590" y="530" width="250" height="80" as="geometry"/>
                </mxCell>
                <mxCell id="0TGpAV2iyIRaie6uvU2J-11" value="&amp;nbsp; &amp;nbsp;&lt;b&gt;Dex UTxO&lt;/b&gt;&lt;br&gt;&lt;b&gt;&amp;nbsp; &amp;nbsp;assets:&lt;/b&gt;&lt;br&gt;&lt;span style=&quot;font-weight: bold; white-space: pre;&quot;&gt;&#9;&lt;/span&gt;coin: 2 ADA" style="rounded=0;whiteSpace=wrap;html=1;align=left;fillColor=#f5f5f5;strokeColor=#666666;fontColor=#333333;" vertex="1" parent="1">
                    <mxGeometry x="590" y="710" width="250" height="80" as="geometry"/>
                </mxCell>
            </root>
        </mxGraphModel>
    </diagram>
</mxfile>